<?xml version="1.0" encoding="UTF-8" standalone="no"?>
<!-- Created with Inkscape (http://www.inkscape.org/) -->

<svg
   width="20.241297mm"
   height="31.445398mm"
   viewBox="0 0 20.241297 31.445398"
   version="1.1"
   id="svg5"
   inkscape:version="1.1 (c68e22c387, 2021-05-23)"
   sodipodi:docname="place2.svg"
   xmlns:inkscape="http://www.inkscape.org/namespaces/inkscape"
   xmlns:sodipodi="http://sodipodi.sourceforge.net/DTD/sodipodi-0.dtd"
   xmlns="http://www.w3.org/2000/svg"
   xmlns:svg="http://www.w3.org/2000/svg">
  <sodipodi:namedview
     id="namedview7"
     pagecolor="#ffffff"
     bordercolor="#999999"
     borderopacity="1"
     inkscape:pageshadow="0"
     inkscape:pageopacity="0"
     inkscape:pagecheckerboard="0"
     inkscape:document-units="mm"
     showgrid="false"
     inkscape:zoom="2.0460067"
     inkscape:cx="84.310574"
     inkscape:cy="-8.0644897"
     inkscape:window-width="1920"
     inkscape:window-height="1001"
     inkscape:window-x="-9"
     inkscape:window-y="-9"
     inkscape:window-maximized="1"
     inkscape:current-layer="layer1"
     showguides="true" />
  <defs
     id="defs2" />
  <g
     inkscape:label="Layer 1"
     inkscape:groupmode="layer"
     id="layer1"
     transform="translate(-14.884589,-48.226014)">
    <path
       style="fill:#3771c8;stroke:none;stroke-width:0.0578023px;stroke-linecap:butt;stroke-linejoin:miter;stroke-opacity:1"
       d="m 23.417736,65.576024 5.1303,14.095384 1.42336,-6.322663 5.15449,3.928527 -5.130302,-14.095389 z"
       id="path19094"
       sodipodi:nodetypes="cccccc" />
    <path
       style="fill:#5f8dd3;stroke:none;stroke-width:0.0578023px;stroke-linecap:butt;stroke-linejoin:miter;stroke-opacity:1"
       d="m 20.01489,63.181883 -5.130301,14.095384 5.154487,-3.928522 1.42336,6.322668 5.130302,-14.095389 z"
       id="path19096"
       sodipodi:nodetypes="cccccc" />
    <circle
       style="fill:none;stroke:#999999;stroke-width:3.333;stroke-miterlimit:4;stroke-dasharray:none"
       id="circle19098"
       cx="25.005245"
       cy="58.225849"
       r="8.333333" />
    <path
       id="path19100"
       style="fill:#f9f9f9;stroke:#cccccc;stroke-width:1.76459;stroke-miterlimit:4;stroke-dasharray:none"
       d="m 24.680806,51.615566 c -3.416924,0.06408 -6.349072,3.222073 -6.292437,6.618956 -0.05019,3.402992 2.903919,6.511594 6.312518,6.602102 3.389166,0.157342 6.680445,-2.611845 6.89259,-6.043006 0.347042,-3.502153 -2.519665,-7.04363 -6.091324,-7.167662 -0.273007,-0.02245 -0.547702,-0.01992 -0.821347,-0.01039 z" />
    <g
       aria-label="2nd"
       id="text19104"
       style="font-size:5.64444px;line-height:1.25;font-family:'Franklin Gothic Book';-inkscape-font-specification:'Franklin Gothic Book, ';text-align:center;text-anchor:middle;fill:#999999;stroke-width:0.264583">
      <path
         id="path2838"
         sodipodi:type="inkscape:offset"
         inkscape:radius="0"
         inkscape:original="M 22.021484 56.443359 C 21.304905 56.443359 20.855613 56.812037 20.671875 57.548828 L 21.109375 57.679688 C 21.131424 57.413266 21.229861 57.203169 21.40625 57.048828 C 21.582639 56.892651 21.785952 56.814453 22.015625 56.814453 C 22.237948 56.814453 22.434592 56.885865 22.605469 57.027344 C 22.776345 57.168822 22.863281 57.354311 22.863281 57.583984 C 22.863281 57.830194 22.76059 58.078357 22.556641 58.330078 C 22.354528 58.579962 21.726532 59.10055 20.671875 59.890625 L 20.671875 60.28125 L 23.341797 60.28125 L 23.341797 59.890625 L 21.267578 59.890625 C 21.774695 59.53601 22.188108 59.21862 22.507812 58.9375 C 22.827517 58.656381 23.044285 58.415003 23.158203 58.212891 C 23.273958 58.010778 23.330078 57.798726 23.330078 57.580078 C 23.330078 57.262211 23.209331 56.993921 22.966797 56.773438 C 22.724262 56.552951 22.409172 56.443359 22.021484 56.443359 z M 28.923828 56.519531 L 28.923828 57.878906 C 28.712529 57.5739 28.437919 57.421875 28.103516 57.421875 C 27.759925 57.421875 27.484968 57.562862 27.277344 57.847656 C 27.069719 58.130613 26.966797 58.485837 26.966797 58.912109 C 26.966797 59.329195 27.071788 59.675449 27.28125 59.949219 C 27.490711 60.221151 27.756815 60.355469 28.082031 60.355469 C 28.473394 60.355469 28.766175 60.172164 28.960938 59.804688 L 28.960938 60.28125 L 29.355469 60.28125 L 29.355469 56.519531 L 28.923828 56.519531 z M 25.404297 57.421875 C 25.04417 57.421875 24.749435 57.618519 24.523438 58.011719 L 24.523438 57.498047 L 24.121094 57.498047 L 24.121094 60.28125 L 24.554688 60.28125 L 24.554688 58.755859 C 24.554687 58.467391 24.628516 58.234983 24.777344 58.058594 C 24.928009 57.882205 25.113498 57.792969 25.333984 57.792969 C 25.493837 57.792969 25.630107 57.846441 25.742188 57.951172 C 25.854268 58.055903 25.910156 58.236907 25.910156 58.494141 L 25.910156 60.28125 L 26.316406 60.28125 L 26.316406 58.671875 C 26.316406 58.320935 26.287542 58.079442 26.232422 57.945312 C 26.179137 57.811184 26.080584 57.690552 25.933594 57.583984 C 25.78844 57.475578 25.611922 57.421875 25.404297 57.421875 z M 28.179688 57.765625 C 28.378125 57.765625 28.550391 57.839337 28.699219 57.986328 C 28.848047 58.133318 28.923828 58.327894 28.923828 58.572266 L 28.923828 59.152344 C 28.923828 59.380179 28.845746 59.579008 28.691406 59.748047 C 28.537066 59.917086 28.358362 60 28.15625 60 C 27.933927 60 27.759476 59.903747 27.630859 59.708984 C 27.50408 59.514222 27.439453 59.230411 27.439453 58.857422 C 27.439453 58.511994 27.50868 58.243822 27.646484 58.052734 C 27.786125 57.861647 27.964713 57.765625 28.179688 57.765625 z "
         d="m 22.021484,56.443359 c -0.716579,0 -1.165871,0.368678 -1.349609,1.105469 l 0.4375,0.13086 c 0.02205,-0.266422 0.120486,-0.476519 0.296875,-0.63086 0.176389,-0.156177 0.379702,-0.234375 0.609375,-0.234375 0.222323,0 0.418967,0.07141 0.589844,0.212891 0.170876,0.141478 0.257812,0.326967 0.257812,0.55664 0,0.24621 -0.102691,0.494373 -0.30664,0.746094 -0.202113,0.249884 -0.830109,0.770472 -1.884766,1.560547 v 0.390625 h 2.669922 v -0.390625 h -2.074219 c 0.507117,-0.354615 0.92053,-0.672005 1.240234,-0.953125 0.319705,-0.281119 0.536473,-0.522497 0.650391,-0.724609 0.115755,-0.202113 0.171875,-0.414165 0.171875,-0.632813 0,-0.317867 -0.120747,-0.586157 -0.363281,-0.80664 -0.242535,-0.220487 -0.557625,-0.330079 -0.945313,-0.330079 z m 6.902344,0.07617 v 1.359375 c -0.211299,-0.305006 -0.485909,-0.457031 -0.820312,-0.457031 -0.343591,0 -0.618548,0.140987 -0.826172,0.425781 -0.207625,0.282957 -0.310547,0.638181 -0.310547,1.064453 0,0.417086 0.104991,0.76334 0.314453,1.03711 0.209461,0.271932 0.475565,0.40625 0.800781,0.40625 0.391363,0 0.684144,-0.183305 0.878907,-0.550781 v 0.476562 h 0.394531 v -3.761719 z m -3.519531,0.902344 c -0.360127,0 -0.654862,0.196644 -0.880859,0.589844 v -0.513672 h -0.402344 v 2.783203 h 0.433594 v -1.525391 c -10e-7,-0.288468 0.07383,-0.520876 0.222656,-0.697265 0.150665,-0.176389 0.336154,-0.265625 0.55664,-0.265625 0.159853,0 0.296123,0.05347 0.408204,0.158203 0.11208,0.104731 0.167968,0.285735 0.167968,0.542969 v 1.787109 h 0.40625 v -1.609375 c 0,-0.35094 -0.02886,-0.592433 -0.08398,-0.726563 -0.05328,-0.134128 -0.151838,-0.25476 -0.298828,-0.361328 -0.145154,-0.108406 -0.321672,-0.162109 -0.529297,-0.162109 z m 2.775391,0.34375 c 0.198437,0 0.370703,0.07371 0.519531,0.220703 0.148828,0.14699 0.224609,0.341566 0.224609,0.585938 v 0.580078 c 0,0.227835 -0.07808,0.426664 -0.232422,0.595703 C 28.537066,59.917086 28.358362,60 28.15625,60 c -0.222323,0 -0.396774,-0.09625 -0.525391,-0.291016 -0.126779,-0.194762 -0.191406,-0.478573 -0.191406,-0.851562 0,-0.345428 0.06923,-0.6136 0.207031,-0.804688 0.139641,-0.191087 0.318229,-0.287109 0.533204,-0.287109 z" />
    </g>
  </g>
</svg>
