<?xml version="1.0" encoding="UTF-8" standalone="no"?>
<!-- Created with Inkscape (http://www.inkscape.org/) -->

<svg
   width="20.241297mm"
   height="31.445398mm"
   viewBox="0 0 20.241297 31.445398"
   version="1.1"
   id="svg5"
   inkscape:version="1.1 (c68e22c387, 2021-05-23)"
   sodipodi:docname="place1.svg"
   xmlns:inkscape="http://www.inkscape.org/namespaces/inkscape"
   xmlns:sodipodi="http://sodipodi.sourceforge.net/DTD/sodipodi-0.dtd"
   xmlns="http://www.w3.org/2000/svg"
   xmlns:svg="http://www.w3.org/2000/svg">
  <sodipodi:namedview
     id="namedview7"
     pagecolor="#ffffff"
     bordercolor="#999999"
     borderopacity="1"
     inkscape:pageshadow="0"
     inkscape:pageopacity="0"
     inkscape:pagecheckerboard="0"
     inkscape:document-units="mm"
     showgrid="false"
     inkscape:zoom="2.8934904"
     inkscape:cx="17.798573"
     inkscape:cy="97.80575"
     inkscape:window-width="1482"
     inkscape:window-height="1030"
     inkscape:window-x="338"
     inkscape:window-y="0"
     inkscape:window-maximized="0"
     inkscape:current-layer="layer1"
     showguides="true" />
  <defs
     id="defs2" />
  <g
     inkscape:label="Layer 1"
     inkscape:groupmode="layer"
     id="layer1"
     transform="translate(4.083703,-13.957025)">
    <path
       style="fill:#c83737;stroke:none;stroke-width:0.0578023px;stroke-linecap:butt;stroke-linejoin:miter;stroke-opacity:1"
       d="m 4.449444,31.307035 5.1303,14.095384 1.42336,-6.322663 5.15449,3.928527 -5.130302,-14.095389 z"
       id="path17919"
       sodipodi:nodetypes="cccccc" />
    <path
       style="fill:#ff5555;stroke:none;stroke-width:0.0578023px;stroke-linecap:butt;stroke-linejoin:miter;stroke-opacity:1"
       d="m 1.046598,28.912894 -5.130301,14.095384 5.154487,-3.928522 1.42336,6.322668 5.130302,-14.095389 z"
       id="path18653"
       sodipodi:nodetypes="cccccc" />
    <circle
       style="fill:none;stroke:#d4aa00;stroke-width:3.333;stroke-miterlimit:4;stroke-dasharray:none"
       id="path846"
       cx="6.0369453"
       cy="23.956858"
       r="8.333333" />
    <path
       id="circle1185"
       style="fill:#fff6d5;stroke:#ffcc00;stroke-width:1.76459;stroke-miterlimit:4;stroke-dasharray:none"
       d="m 5.712514,17.346577 c -3.416924,0.06408 -6.349072,3.222073 -6.292437,6.618956 -0.05019,3.402992 2.903919,6.511594 6.312518,6.602102 3.389166,0.157342 6.680445,-2.611845 6.89259,-6.043006 0.347042,-3.502153 -2.519665,-7.04363 -6.091324,-7.167662 -0.273007,-0.02245 -0.547702,-0.01992 -0.821347,-0.01039 z" />
    <g
       aria-label="1st"
       id="text5194"
       style="font-size:5.64444px;font-family:'Franklin Gothic Book';-inkscape-font-specification:'Franklin Gothic Book, ';text-align:center;text-anchor:middle;fill:#d4aa00;stroke-width:0.264583">
      <path
         id="path838"
         style="-inkscape-font-specification:Leelawadee"
         sodipodi:type="inkscape:offset"
         inkscape:radius="0"
         inkscape:original="M 3.9453125 21.904297 C 3.8754915 21.964937 3.7928096 22.02749 3.6972656 22.091797 C 3.6017216 22.154267 3.4990306 22.214643 3.390625 22.273438 C 3.2840568 22.330398 3.1745804 22.381914 3.0625 22.429688 C 2.9522571 22.475628 2.8472655 22.513458 2.7480469 22.541016 L 2.7480469 22.998047 C 2.8362409 22.975997 2.927662 22.94484 3.0195312 22.90625 C 3.1132383 22.86767 3.2005209 22.8273 3.2832031 22.783203 C 3.3677221 22.739113 3.4436196 22.694493 3.5097656 22.650391 C 3.5777486 22.604451 3.6291525 22.564201 3.6640625 22.529297 L 3.6640625 25.943359 L 4.1152344 25.943359 L 4.1152344 21.904297 L 3.9453125 21.904297 z M 8.6132812 22.287109 L 8.1621094 22.433594 L 8.1621094 23.121094 L 7.6777344 23.121094 L 7.6777344 23.507812 L 8.1621094 23.507812 L 8.1621094 25.177734 C 8.1621094 25.72895 8.4080876 26.003906 8.9023438 26.003906 C 9.0768952 26.003906 9.2176505 25.974806 9.3242188 25.916016 L 9.3242188 25.53125 C 9.2415368 25.59372 9.1432146 25.625 9.0292969 25.625 C 8.8804691 25.625 8.7752462 25.58475 8.7109375 25.503906 C 8.6466285 25.423066 8.6132812 25.286907 8.6132812 25.097656 L 8.6132812 23.507812 L 9.3242188 23.507812 L 9.3242188 23.121094 L 8.6132812 23.121094 L 8.6132812 22.287109 z M 6.5351562 23.054688 C 6.3973527 23.054688 6.2632667 23.072512 6.1328125 23.107422 C 6.0041957 23.142332 5.8901186 23.195802 5.7890625 23.265625 C 5.6880062 23.333605 5.6075083 23.41859 5.546875 23.521484 C 5.486242 23.62254 5.4550781 23.738802 5.4550781 23.871094 C 5.4550781 23.979499 5.4707181 24.075405 5.5019531 24.15625 C 5.5350261 24.2371 5.5840131 24.30874 5.6464844 24.373047 C 5.7107924 24.435517 5.789106 24.491522 5.8828125 24.542969 C 5.9783565 24.592579 6.0879486 24.64375 6.2128906 24.693359 C 6.3029226 24.728269 6.3876737 24.761849 6.4648438 24.794922 C 6.5438507 24.826152 6.6110095 24.861922 6.6679688 24.902344 C 6.7267648 24.942764 6.773568 24.989684 6.8066406 25.042969 C 6.8415506 25.094419 6.8574219 25.157089 6.8574219 25.232422 C 6.8574219 25.497005 6.6605465 25.628906 6.2636719 25.628906 C 5.9678532 25.628906 5.695428 25.539326 5.4492188 25.357422 L 5.4492188 25.841797 C 5.6623551 25.953878 5.9147717 26.009766 6.2050781 26.009766 C 6.3520688 26.009766 6.4928242 25.994018 6.6269531 25.960938 C 6.7610821 25.927868 6.8795284 25.876578 6.9824219 25.808594 C 7.0853156 25.740614 7.1678823 25.655628 7.2285156 25.552734 C 7.2909866 25.449841 7.3203125 25.329094 7.3203125 25.189453 C 7.3203125 25.075535 7.3022579 24.977213 7.2636719 24.894531 C 7.2269239 24.811851 7.1733359 24.738255 7.1035156 24.675781 C 7.0336956 24.611471 6.948828 24.555466 6.8496094 24.505859 C 6.7503904 24.454409 6.6386139 24.405195 6.5136719 24.357422 C 6.4199649 24.320672 6.3371672 24.285142 6.2636719 24.253906 C 6.1901769 24.222676 6.1276185 24.188976 6.0761719 24.150391 C 6.0247249 24.111801 5.9845919 24.067181 5.9570312 24.017578 C 5.9313082 23.967968 5.9179677 23.905527 5.9179688 23.832031 C 5.9179686 23.773241 5.9313083 23.721601 5.9570312 23.673828 C 5.9845923 23.624218 6.0225402 23.581788 6.0703125 23.546875 C 6.1199215 23.511965 6.1781105 23.485177 6.2460938 23.466797 C 6.3140767 23.446587 6.3900898 23.435547 6.4746094 23.435547 C 6.7447046 23.435547 6.9837821 23.504657 7.1914062 23.640625 L 7.1914062 23.181641 C 6.9984811 23.097121 6.7795282 23.054687 6.5351562 23.054688 z "
         d="m 3.9453125,21.904297 c -0.069821,0.06064 -0.1525029,0.123193 -0.2480469,0.1875 -0.095544,0.06247 -0.198235,0.122846 -0.3066406,0.181641 -0.1065682,0.05696 -0.2160446,0.108476 -0.328125,0.15625 -0.1102429,0.04594 -0.2152345,0.08377 -0.3144531,0.111328 v 0.457031 c 0.088194,-0.02205 0.1796151,-0.05321 0.2714843,-0.0918 0.093707,-0.03858 0.1809897,-0.07895 0.2636719,-0.123047 0.084519,-0.04409 0.1604165,-0.08871 0.2265625,-0.132812 0.067983,-0.04594 0.1193869,-0.08619 0.1542969,-0.121094 v 3.414062 h 0.4511719 v -4.039062 z m 4.6679687,0.382812 -0.4511718,0.146485 v 0.6875 h -0.484375 v 0.386718 h 0.484375 v 1.669922 c 0,0.551216 0.2459782,0.826172 0.7402344,0.826172 0.1745514,0 0.3153067,-0.0291 0.421875,-0.08789 V 25.53125 C 9.2415368,25.59372 9.1432146,25.625 9.0292969,25.625 c -0.1488278,0 -0.2540507,-0.04025 -0.3183594,-0.121094 -0.064309,-0.08084 -0.097656,-0.216999 -0.097656,-0.40625 V 23.507812 H 9.3242188 V 23.121094 H 8.6132812 Z m -2.078125,0.767579 c -0.1378035,0 -0.2718895,0.01782 -0.4023437,0.05273 -0.1286168,0.03491 -0.2426939,0.08838 -0.34375,0.158203 -0.1010563,0.06798 -0.1815542,0.152965 -0.2421875,0.255859 -0.060633,0.101056 -0.091797,0.217318 -0.091797,0.34961 0,0.108405 0.01564,0.204311 0.046875,0.285156 0.033073,0.08085 0.08206,0.15249 0.1445313,0.216797 0.064308,0.06247 0.1426216,0.118475 0.2363281,0.169922 0.095544,0.04961 0.2051361,0.100781 0.3300781,0.15039 0.090032,0.03491 0.1747831,0.06849 0.2519532,0.101563 0.079007,0.03123 0.1461657,0.067 0.203125,0.107422 0.058796,0.04042 0.1055992,0.08734 0.1386718,0.140625 0.03491,0.05145 0.050781,0.11412 0.050781,0.189453 0,0.264583 -0.1968754,0.396484 -0.59375,0.396484 -0.2958187,0 -0.5682439,-0.08958 -0.8144531,-0.271484 v 0.484375 c 0.2131363,0.112081 0.4655529,0.167969 0.7558593,0.167969 0.1469907,0 0.2877461,-0.01575 0.421875,-0.04883 0.134129,-0.03307 0.2525753,-0.08436 0.3554688,-0.152344 0.1028937,-0.06798 0.1854604,-0.152966 0.2460937,-0.25586 0.062471,-0.102893 0.091797,-0.22364 0.091797,-0.363281 0,-0.113918 -0.018055,-0.21224 -0.056641,-0.294922 -0.036748,-0.08268 -0.090336,-0.156276 -0.1601563,-0.21875 -0.06982,-0.06431 -0.1546876,-0.120315 -0.2539062,-0.169922 -0.099219,-0.05145 -0.2109955,-0.100664 -0.3359375,-0.148437 -0.093707,-0.03675 -0.1765047,-0.07228 -0.25,-0.103516 -0.073495,-0.03123 -0.1360534,-0.06493 -0.1875,-0.103515 -0.051447,-0.03859 -0.09158,-0.08321 -0.1191407,-0.132813 -0.025723,-0.04961 -0.039064,-0.112051 -0.039062,-0.185547 -2e-7,-0.05879 0.01334,-0.11043 0.039062,-0.158203 0.027561,-0.04961 0.065509,-0.09204 0.1132813,-0.126953 0.049609,-0.03491 0.107798,-0.0617 0.1757813,-0.08008 0.067983,-0.02021 0.143996,-0.03125 0.2285156,-0.03125 0.2700952,0 0.5091727,0.06911 0.7167968,0.205078 v -0.458984 c -0.1929251,-0.08452 -0.411878,-0.126954 -0.65625,-0.126953 z" />
    </g>
  </g>
</svg>
