<?xml version="1.0" encoding="UTF-8" standalone="no"?>
<!-- Created with Inkscape (http://www.inkscape.org/) -->

<svg
   width="20.241297mm"
   height="31.445398mm"
   viewBox="0 0 20.241297 31.445398"
   version="1.1"
   id="svg5"
   inkscape:version="1.1 (c68e22c387, 2021-05-23)"
   sodipodi:docname="place3.svg"
   xmlns:inkscape="http://www.inkscape.org/namespaces/inkscape"
   xmlns:sodipodi="http://sodipodi.sourceforge.net/DTD/sodipodi-0.dtd"
   xmlns="http://www.w3.org/2000/svg"
   xmlns:svg="http://www.w3.org/2000/svg">
  <sodipodi:namedview
     id="namedview7"
     pagecolor="#ffffff"
     bordercolor="#999999"
     borderopacity="1"
     inkscape:pageshadow="0"
     inkscape:pageopacity="0"
     inkscape:pagecheckerboard="0"
     inkscape:document-units="mm"
     showgrid="false"
     inkscape:zoom="2.0460067"
     inkscape:cx="-79.178626"
     inkscape:cy="-5.131948"
     inkscape:window-width="1920"
     inkscape:window-height="1001"
     inkscape:window-x="-9"
     inkscape:window-y="-9"
     inkscape:window-maximized="1"
     inkscape:current-layer="layer1"
     showguides="true" />
  <defs
     id="defs2" />
  <g
     inkscape:label="Layer 1"
     inkscape:groupmode="layer"
     id="layer1"
     transform="translate(-74.458401,-26.759402)">
    <path
       style="fill:#2ca05a;stroke:none;stroke-width:0.0578023px;stroke-linecap:butt;stroke-linejoin:miter;stroke-opacity:1"
       d="m 82.991548,44.109412 5.1303,14.095384 1.42336,-6.322663 5.15449,3.928527 -5.130302,-14.095389 z"
       id="path19106"
       sodipodi:nodetypes="cccccc" />
    <path
       style="fill:#37c871;stroke:none;stroke-width:0.0578023px;stroke-linecap:butt;stroke-linejoin:miter;stroke-opacity:1"
       d="m 79.588702,41.715271 -5.130301,14.095384 5.154487,-3.928522 1.42336,6.322668 5.130302,-14.095389 z"
       id="path19108"
       sodipodi:nodetypes="cccccc" />
    <circle
       style="fill:none;stroke:#c87137;stroke-width:3.333;stroke-miterlimit:4;stroke-dasharray:none"
       id="circle19110"
       cx="84.579063"
       cy="36.759235"
       r="8.333333" />
    <path
       id="path19112"
       style="fill:#ffe6d5;stroke:#f89357;stroke-width:1.76459;stroke-miterlimit:4;stroke-dasharray:none;stroke-opacity:1"
       d="m 84.254618,30.148954 c -3.416924,0.06408 -6.349072,3.222073 -6.292437,6.618956 -0.05019,3.402992 2.903919,6.511594 6.312518,6.602102 3.389166,0.157342 6.680445,-2.611845 6.89259,-6.043006 0.347042,-3.502153 -2.519665,-7.04363 -6.091324,-7.167662 -0.273007,-0.02245 -0.547702,-0.01992 -0.821347,-0.01039 z" />
    <g
       aria-label="3rd"
       id="text19116"
       style="font-size:5.64444px;line-height:1.25;font-family:'Franklin Gothic Book';-inkscape-font-specification:'Franklin Gothic Book, ';text-align:center;text-anchor:middle;fill:#a05a2c;stroke-width:0.264583">
      <path
         id="path2622"
         sodipodi:type="inkscape:offset"
         inkscape:radius="0"
         inkscape:original="M 82.226562 34.974609 C 81.572454 34.974609 81.123393 35.262906 80.880859 35.839844 L 81.306641 35.960938 C 81.468331 35.553038 81.760996 35.349609 82.183594 35.349609 C 82.411429 35.349609 82.599335 35.409867 82.75 35.529297 C 82.900665 35.64689 82.976562 35.805701 82.976562 36.007812 C 82.976562 36.19155 82.90745 36.347945 82.771484 36.476562 C 82.637355 36.605179 82.413802 36.669922 82.099609 36.669922 L 81.669922 36.669922 L 81.669922 37.044922 L 82.099609 37.044922 C 82.419314 37.044922 82.667361 37.111965 82.84375 37.246094 C 83.021976 37.380223 83.111328 37.554674 83.111328 37.771484 C 83.111328 37.97176 83.0375 38.145863 82.888672 38.291016 C 82.741681 38.434332 82.498235 38.505859 82.160156 38.505859 C 81.640177 38.505859 81.313932 38.278052 81.181641 37.824219 L 80.744141 37.970703 C 80.839685 38.248148 81.011835 38.469517 81.261719 38.636719 C 81.51344 38.803921 81.815191 38.888672 82.167969 38.888672 C 82.612615 38.888672 82.963353 38.781496 83.21875 38.568359 C 83.474146 38.353385 83.601562 38.089583 83.601562 37.775391 C 83.601562 37.512645 83.516464 37.298177 83.34375 37.132812 C 83.172873 36.967451 82.967376 36.866945 82.728516 36.832031 C 82.941652 36.791609 83.115986 36.693171 83.251953 36.535156 C 83.387919 36.375304 83.455078 36.187746 83.455078 35.974609 C 83.455078 35.699002 83.343186 35.464294 83.117188 35.269531 C 82.891189 35.072931 82.594039 34.974609 82.226562 34.974609 z M 87.832031 35.052734 L 87.832031 36.410156 C 87.620732 36.10515 87.348075 35.953125 87.013672 35.953125 C 86.670081 35.953125 86.395124 36.096065 86.1875 36.380859 C 85.979875 36.663816 85.875 37.017086 85.875 37.443359 C 85.875 37.860445 85.979991 38.206698 86.189453 38.480469 C 86.398914 38.752401 86.666971 38.888672 86.992188 38.888672 C 87.38355 38.888672 87.676331 38.705367 87.871094 38.337891 L 87.871094 38.814453 L 88.265625 38.814453 L 88.265625 35.052734 L 87.832031 35.052734 z M 85.519531 35.947266 C 85.378053 35.947266 85.239482 35.994068 85.103516 36.085938 C 84.969387 36.17597 84.835301 36.374798 84.701172 36.681641 L 84.701172 36.029297 L 84.322266 36.029297 L 84.322266 38.814453 L 84.753906 38.814453 L 84.753906 37.341797 C 84.76493 37.05149 84.849797 36.816898 85.007812 36.638672 C 85.165827 36.460446 85.364656 36.371094 85.603516 36.371094 L 85.691406 36.371094 L 85.691406 35.958984 C 85.621589 35.951638 85.563631 35.947266 85.519531 35.947266 z M 87.087891 36.296875 C 87.286328 36.296875 87.460547 36.370587 87.609375 36.517578 C 87.758203 36.664569 87.832031 36.861097 87.832031 37.105469 L 87.832031 37.683594 C 87.832031 37.911429 87.755902 38.110258 87.601562 38.279297 C 87.447222 38.448336 87.268519 38.533203 87.066406 38.533203 C 86.844083 38.533203 86.667679 38.434997 86.539062 38.240234 C 86.412283 38.045472 86.349609 37.761661 86.349609 37.388672 C 86.349609 37.043244 86.418837 36.775072 86.556641 36.583984 C 86.696281 36.392897 86.872917 36.296875 87.087891 36.296875 z "
         d="m 82.226562,34.974609 c -0.654108,0 -1.103169,0.288297 -1.345703,0.865235 l 0.425782,0.121094 c 0.16169,-0.4079 0.454355,-0.611329 0.876953,-0.611329 0.227835,0 0.415741,0.06026 0.566406,0.179688 0.150665,0.117593 0.226562,0.276404 0.226562,0.478515 0,0.183738 -0.06911,0.340133 -0.205078,0.46875 -0.134129,0.128617 -0.357682,0.19336 -0.671875,0.19336 h -0.429687 v 0.375 h 0.429687 c 0.319705,0 0.567752,0.06704 0.744141,0.201172 0.178226,0.134129 0.267578,0.30858 0.267578,0.52539 0,0.200276 -0.07383,0.374379 -0.222656,0.519532 -0.146991,0.143316 -0.390437,0.214843 -0.728516,0.214843 -0.519979,0 -0.846224,-0.227807 -0.978515,-0.68164 l -0.4375,0.146484 c 0.09554,0.277445 0.267694,0.498814 0.517578,0.666016 0.251721,0.167202 0.553472,0.251953 0.90625,0.251953 0.444646,0 0.795384,-0.107176 1.050781,-0.320313 0.255396,-0.214974 0.382812,-0.478776 0.382812,-0.792968 0,-0.262746 -0.0851,-0.477214 -0.257812,-0.642579 -0.170877,-0.165361 -0.376374,-0.265867 -0.615234,-0.300781 0.213136,-0.04042 0.38747,-0.13886 0.523437,-0.296875 0.135966,-0.159852 0.203125,-0.34741 0.203125,-0.560547 0,-0.275607 -0.111892,-0.510315 -0.33789,-0.705078 -0.225999,-0.1966 -0.523149,-0.294922 -0.890626,-0.294922 z m 5.605469,0.07813 v 1.357422 c -0.211299,-0.305006 -0.483956,-0.457031 -0.818359,-0.457031 -0.343591,0 -0.618548,0.14294 -0.826172,0.427734 -0.207625,0.282957 -0.3125,0.636227 -0.3125,1.0625 0,0.417086 0.104991,0.763339 0.314453,1.03711 0.209461,0.271932 0.477518,0.408203 0.802735,0.408203 0.391362,0 0.684143,-0.183305 0.878906,-0.550781 v 0.476562 h 0.394531 v -3.761719 z m -2.3125,0.894532 c -0.141478,0 -0.280049,0.0468 -0.416015,0.138672 -0.134129,0.09003 -0.268215,0.28886 -0.402344,0.595703 v -0.652344 h -0.378906 v 2.785156 h 0.43164 v -1.472656 c 0.01102,-0.290307 0.09589,-0.524899 0.253906,-0.703125 0.158015,-0.178226 0.356844,-0.267578 0.595704,-0.267578 h 0.08789 v -0.41211 c -0.06982,-0.0073 -0.127775,-0.01172 -0.171875,-0.01172 z m 1.56836,0.349609 c 0.198437,0 0.372656,0.07371 0.521484,0.220703 0.148828,0.146991 0.222656,0.343519 0.222656,0.587891 v 0.578125 c 0,0.227835 -0.07613,0.426664 -0.230469,0.595703 -0.15434,0.169039 -0.333043,0.253906 -0.535156,0.253906 -0.222323,0 -0.398727,-0.09821 -0.527344,-0.292969 -0.126779,-0.194762 -0.189453,-0.478573 -0.189453,-0.851562 0,-0.345428 0.06923,-0.6136 0.207032,-0.804688 0.13964,-0.191087 0.316276,-0.287109 0.53125,-0.287109 z" />
    </g>
  </g>
</svg>
